<svg width="37" height="30" viewBox="0 0 37 30" fill="none" xmlns="http://www.w3.org/2000/svg">
<path d="M0 29.3333V25.6667H10.5417C9.86944 23.0694 8.59406 20.8316 6.7155 18.953C4.83694 17.0744 2.59844 15.7984 0 15.125C0.611111 14.9722 1.21489 14.8579 1.81133 14.7822C2.40778 14.7064 3.02622 14.6679 3.66667 14.6667C7.76111 14.6667 11.2292 16.0875 14.0708 18.9292C16.9125 21.7708 18.3333 25.2389 18.3333 29.3333H0ZM22 29.3333C22 28.05 21.8625 26.7746 21.5875 25.5072C21.3125 24.2397 20.9153 23.0248 20.3958 21.8625C21.6792 19.6931 23.4288 17.9514 25.6447 16.6375C27.8606 15.3236 30.3123 14.6667 33 14.6667C33.6417 14.6667 34.2607 14.7052 34.8572 14.7822C35.4536 14.8592 36.0568 14.9734 36.6667 15.125C34.0694 15.7972 31.8389 17.0732 29.975 18.953C28.1111 20.8328 26.8278 23.0707 26.125 25.6667H36.6667V29.3333H22ZM18.3333 18.3792C18.3333 16.3931 18.7 14.5292 19.4333 12.7875C20.1667 11.0458 21.175 9.51011 22.4583 8.18033C23.7417 6.85055 25.2468 5.78905 26.9738 4.99583C28.7008 4.20261 30.5415 3.77483 32.4958 3.7125C30.7847 4.78194 29.2875 6.09583 28.0042 7.65417C26.7208 9.2125 25.7278 10.9542 25.025 12.8792C23.6806 13.5208 22.451 14.3079 21.3363 15.2405C20.2217 16.1731 19.2207 17.2193 18.3333 18.3792ZM14.9875 14.9417C14.6208 14.6667 14.2542 14.4069 13.8875 14.1625C13.5208 13.9181 13.1389 13.6736 12.7417 13.4292C12.7417 13.2458 12.7569 13.0552 12.7875 12.8572C12.8181 12.6592 12.8333 12.4679 12.8333 12.2833C12.8333 9.96111 12.4667 7.76111 11.7333 5.68333C11 3.60555 9.96111 1.71111 8.61667 0C10.6333 0.825 12.3829 2.00872 13.8655 3.55117C15.3481 5.09361 16.4859 6.87378 17.2792 8.89167C16.7292 9.80833 16.2556 10.7788 15.8583 11.803C15.4611 12.8272 15.1708 13.8734 14.9875 14.9417Z" fill="white"/>
</svg>
