<svg width="44" height="44" viewBox="0 0 44 44" fill="none" xmlns="http://www.w3.org/2000/svg">
<path d="M3.66602 36.6654V32.9987H14.2077C13.5355 30.4015 12.2601 28.1636 10.3815 26.285C8.50296 24.4065 6.26446 23.1305 3.66602 22.457C4.27713 22.3043 4.8809 22.19 5.47735 22.1142C6.07379 22.0384 6.69224 21.9999 7.33268 21.9987C11.4271 21.9987 14.8952 23.4195 17.7368 26.2612C20.5785 29.1029 21.9993 32.5709 21.9993 36.6654H3.66602ZM25.666 36.6654C25.666 35.382 25.5285 34.1066 25.2535 32.8392C24.9785 31.5717 24.5813 30.3569 24.0618 29.1945C25.3452 27.0251 27.0948 25.2834 29.3107 23.9695C31.5266 22.6556 33.9783 21.9987 36.666 21.9987C37.3077 21.9987 37.9267 22.0372 38.5232 22.1142C39.1196 22.1912 39.7228 22.3055 40.3327 22.457C37.7355 23.1293 35.5049 24.4053 33.641 26.285C31.7771 28.1648 30.4938 30.4027 29.791 32.9987H40.3327V36.6654H25.666ZM21.9993 25.7112C21.9993 23.7251 22.366 21.8612 23.0993 20.1195C23.8327 18.3779 24.841 16.8421 26.1243 15.5124C27.4077 14.1826 28.9128 13.1211 30.6398 12.3279C32.3668 11.5346 34.2075 11.1069 36.1618 11.0445C34.4507 12.114 32.9535 13.4279 31.6702 14.9862C30.3868 16.5445 29.3938 18.2862 28.691 20.2112C27.3466 20.8529 26.117 21.64 25.0023 22.5725C23.8877 23.5051 22.8867 24.5513 21.9993 25.7112ZM18.6535 22.2737C18.2868 21.9987 17.9202 21.739 17.5535 21.4945C17.1868 21.2501 16.8049 21.0056 16.4077 20.7612C16.4077 20.5779 16.423 20.3872 16.4535 20.1892C16.4841 19.9912 16.4993 19.7999 16.4993 19.6154C16.4993 17.2931 16.1327 15.0931 15.3993 13.0154C14.666 10.9376 13.6271 9.04314 12.2827 7.33203C14.2993 8.15703 16.049 9.34075 17.5315 10.8832C19.0141 12.4256 20.152 14.2058 20.9452 16.2237C20.3952 17.1404 19.9216 18.1108 19.5243 19.135C19.1271 20.1593 18.8368 21.2055 18.6535 22.2737Z" fill="white"/>
</svg>
